<svg width="428" height="282" viewBox="0 0 428 282" fill="none" xmlns="http://www.w3.org/2000/svg">
<path opacity="0.8" d="M792 17.3734H757.611C723.222 17.3734 654.444 17.3734 585.667 33.7683C516.889 50.1631 448.111 82.9528 379.333 110.312C310.556 137.261 241.778 159.804 173 143.101C104.222 127.014 35.4445 71.6813 -33.3333 71.9887C-102.111 71.6813 -170.889 127.014 -239.667 148.532C-308.444 170.05 -377.222 159.804 -411.611 153.963L-446 148.532V-15.4163H-411.611C-377.222 -15.4163 -308.444 -15.4163 -239.667 -15.4163C-170.889 -15.4163 -102.111 -15.4163 -33.3333 -15.4163C35.4445 -15.4163 104.222 -15.4163 173 -15.4163C241.778 -15.4163 310.556 -15.4163 379.333 -15.4163C448.111 -15.4163 516.889 -15.4163 585.667 -15.4163C654.444 -15.4163 723.222 -15.4163 757.611 -15.4163H792V17.3734Z" fill="#2048FE"/>
<g clip-path="url(#clip0_13_60)">
<path d="M616 26.4192H581C546 26.4192 476 26.4192 406 42.6288C336 58.8383 266 91.2575 196 118.307C126 144.952 55.9999 167.24 -14.0001 150.726C-84.0001 134.821 -154 80.1134 -224 80.4174C-294 80.1134 -364 134.821 -434 156.096C-504 177.371 -574 167.24 -609 161.465L-644 156.096V-6.00001H-609C-574 -6.00001 -504 -6.00001 -434 -6.00001C-364 -6.00001 -294 -6.00001 -224 -6.00001C-154 -6.00001 -84.0001 -6.00001 -14.0001 -6.00001C55.9999 -6.00001 126 -6.00001 196 -6.00001C266 -6.00001 336 -6.00001 406 -6.00001C476 -6.00001 546 -6.00001 581 -6.00001H616V26.4192Z" fill="#2048FE"/>
</g>
<g clip-path="url(#clip1_13_60)">
<path d="M594 -20.5071H559.611C525.222 -20.5071 456.444 -20.5071 387.667 -4.76063C318.889 10.9858 250.111 42.4787 181.333 68.7556C112.556 94.6389 43.7778 116.29 -25 100.249C-93.7778 84.7973 -162.556 31.653 -231.333 31.9483C-300.111 31.653 -368.889 84.7973 -437.667 105.465C-506.444 126.132 -575.222 116.29 -609.611 110.681L-644 105.465V-52H-609.611C-575.222 -52 -506.444 -52 -437.667 -52C-368.889 -52 -300.111 -52 -231.333 -52C-162.556 -52 -93.7778 -52 -25 -52C43.7778 -52 112.556 -52 181.333 -52C250.111 -52 318.889 -52 387.667 -52C456.444 -52 525.222 -52 559.611 -52H594V-20.5071Z" fill="#21378E"/>
</g>
<defs>
<clipPath id="clip0_13_60">
<rect width="1238.14" height="355" fill="white" transform="matrix(-1 0 0 -1 594.141 282)"/>
</clipPath>
<clipPath id="clip1_13_60">
<rect width="1238.14" height="122.081" fill="white" transform="matrix(-1 0 0 -1 616 118.154)"/>
</clipPath>
</defs>
</svg>
